solid OpenSCAD_Model
  facet normal -1.000000 -0.000000 -0.000000
    outer loop
      vertex 5.000000 -25.000000 0.000000
      vertex 5.000000 -25.000000 37.500000
      vertex 5.000000 25.000000 0.000000
    endloop
  endfacet
  facet normal -1.000000 0.000000 0.000000
    outer loop
      vertex 5.000000 25.000000 0.000000
      vertex 5.000000 -25.000000 37.500000
      vertex 5.000000 25.000000 37.500000
    endloop
  endfacet
  facet normal 0.000000 -1.000000 0.000000
    outer loop
      vertex 5.000000 -25.000000 37.500000
      vertex 5.000000 -25.000000 0.000000
      vertex 55.000000 -25.000000 0.000000
    endloop
  endfacet
  facet normal 0.000000 -1.000000 0.000000
    outer loop
      vertex 55.000000 -25.000000 37.500000
      vertex 5.000000 -25.000000 37.500000
      vertex 55.000000 -25.000000 0.000000
    endloop
  endfacet
  facet normal -0.000000 -0.000000 -1.000000
    outer loop
      vertex 5.000000 -25.000000 0.000000
      vertex 5.000000 25.000000 0.000000
      vertex 55.000000 -25.000000 0.000000
    endloop
  endfacet
  facet normal 0.000000 0.000000 -1.000000
    outer loop
      vertex 55.000000 -25.000000 0.000000
      vertex 5.000000 25.000000 0.000000
      vertex 55.000000 25.000000 0.000000
    endloop
  endfacet
  facet normal 0.000000 1.000000 0.000000
    outer loop
      vertex 5.000000 25.000000 0.000000
      vertex 5.000000 25.000000 37.500000
      vertex 55.000000 25.000000 0.000000
    endloop
  endfacet
  facet normal 0.000000 1.000000 0.000000
    outer loop
      vertex 55.000000 25.000000 0.000000
      vertex 5.000000 25.000000 37.500000
      vertex 55.000000 25.000000 37.500000
    endloop
  endfacet
  facet normal 0.000000 0.000000 1.000000
    outer loop
      vertex 7.500000 22.500000 37.500000
      vertex 55.000000 25.000000 37.500000
      vertex 5.000000 25.000000 37.500000
    endloop
  endfacet
  facet normal 0.000000 0.000000 1.000000
    outer loop
      vertex 52.500000 22.500000 37.500000
      vertex 55.000000 -25.000000 37.500000
      vertex 55.000000 25.000000 37.500000
    endloop
  endfacet
  facet normal 0.000000 0.000000 1.000000
    outer loop
      vertex 5.000000 -25.000000 37.500000
      vertex 7.500000 22.500000 37.500000
      vertex 5.000000 25.000000 37.500000
    endloop
  endfacet
  facet normal 0.000000 0.000000 1.000000
    outer loop
      vertex 52.500000 -22.500000 37.500000
      vertex 55.000000 -25.000000 37.500000
      vertex 52.500000 22.500000 37.500000
    endloop
  endfacet
  facet normal 0.000000 0.000000 1.000000
    outer loop
      vertex 7.500000 22.500000 37.500000
      vertex 52.500000 22.500000 37.500000
      vertex 55.000000 25.000000 37.500000
    endloop
  endfacet
  facet normal 0.000000 0.000000 1.000000
    outer loop
      vertex 5.000000 -25.000000 37.500000
      vertex 55.000000 -25.000000 37.500000
      vertex 52.500000 -22.500000 37.500000
    endloop
  endfacet
  facet normal 0.000000 0.000000 1.000000
    outer loop
      vertex 5.000000 -25.000000 37.500000
      vertex 7.500000 -22.500000 37.500000
      vertex 7.500000 22.500000 37.500000
    endloop
  endfacet
  facet normal 0.000000 0.000000 1.000000
    outer loop
      vertex 5.000000 -25.000000 37.500000
      vertex 52.500000 -22.500000 37.500000
      vertex 7.500000 -22.500000 37.500000
    endloop
  endfacet
  facet normal 1.000000 0.000000 -0.000000
    outer loop
      vertex 55.000000 -25.000000 37.500000
      vertex 55.000000 -25.000000 0.000000
      vertex 55.000000 25.000000 0.000000
    endloop
  endfacet
  facet normal 1.000000 0.000000 0.000000
    outer loop
      vertex 55.000000 25.000000 37.500000
      vertex 55.000000 -25.000000 37.500000
      vertex 55.000000 25.000000 0.000000
    endloop
  endfacet
  facet normal -1.000000 -0.000000 -0.000000
    outer loop
      vertex 7.500000 -22.500000 37.500000
      vertex 7.500000 -22.500000 45.000000
      vertex 7.500000 22.500000 37.500000
    endloop
  endfacet
  facet normal -1.000000 0.000000 0.000000
    outer loop
      vertex 7.500000 22.500000 37.500000
      vertex 7.500000 -22.500000 45.000000
      vertex 7.500000 22.500000 45.000000
    endloop
  endfacet
  facet normal 0.000000 1.000000 0.000000
    outer loop
      vertex 7.500000 22.500000 37.500000
      vertex 7.500000 22.500000 45.000000
      vertex 52.500000 22.500000 37.500000
    endloop
  endfacet
  facet normal 0.000000 1.000000 0.000000
    outer loop
      vertex 52.500000 22.500000 37.500000
      vertex 7.500000 22.500000 45.000000
      vertex 52.500000 22.500000 45.000000
    endloop
  endfacet
  facet normal 0.000000 -1.000000 0.000000
    outer loop
      vertex 7.500000 -22.500000 45.000000
      vertex 7.500000 -22.500000 37.500000
      vertex 52.500000 -22.500000 37.500000
    endloop
  endfacet
  facet normal 0.000000 -1.000000 0.000000
    outer loop
      vertex 52.500000 -22.500000 45.000000
      vertex 7.500000 -22.500000 45.000000
      vertex 52.500000 -22.500000 37.500000
    endloop
  endfacet
  facet normal 1.000000 0.000000 -0.000000
    outer loop
      vertex 52.500000 -22.500000 45.000000
      vertex 52.500000 -22.500000 37.500000
      vertex 52.500000 22.500000 37.500000
    endloop
  endfacet
  facet normal 1.000000 0.000000 0.000000
    outer loop
      vertex 52.500000 22.500000 45.000000
      vertex 52.500000 -22.500000 45.000000
      vertex 52.500000 22.500000 37.500000
    endloop
  endfacet
  facet normal 0.000000 -0.000000 1.000000
    outer loop
      vertex 10.000000 -20.000000 45.000000
      vertex 7.500000 -22.500000 45.000000
      vertex 52.500000 -22.500000 45.000000
    endloop
  endfacet
  facet normal -0.000000 0.000000 1.000000
    outer loop
      vertex 10.000000 20.000000 45.000000
      vertex 7.500000 22.500000 45.000000
      vertex 10.000000 -20.000000 45.000000
    endloop
  endfacet
  facet normal 0.000000 -0.000000 1.000000
    outer loop
      vertex 50.000000 -20.000000 45.000000
      vertex 10.000000 -20.000000 45.000000
      vertex 52.500000 -22.500000 45.000000
    endloop
  endfacet
  facet normal 0.000000 -0.000000 1.000000
    outer loop
      vertex 7.500000 22.500000 45.000000
      vertex 7.500000 -22.500000 45.000000
      vertex 10.000000 -20.000000 45.000000
    endloop
  endfacet
  facet normal 0.000000 0.000000 1.000000
    outer loop
      vertex 52.500000 22.500000 45.000000
      vertex 7.500000 22.500000 45.000000
      vertex 10.000000 20.000000 45.000000
    endloop
  endfacet
  facet normal 0.000000 0.000000 1.000000
    outer loop
      vertex 52.500000 22.500000 45.000000
      vertex 50.000000 20.000000 45.000000
      vertex 52.500000 -22.500000 45.000000
    endloop
  endfacet
  facet normal 0.000000 0.000000 1.000000
    outer loop
      vertex 52.500000 22.500000 45.000000
      vertex 10.000000 20.000000 45.000000
      vertex 50.000000 20.000000 45.000000
    endloop
  endfacet
  facet normal 0.000000 -0.000000 1.000000
    outer loop
      vertex 50.000000 20.000000 45.000000
      vertex 50.000000 -20.000000 45.000000
      vertex 52.500000 -22.500000 45.000000
    endloop
  endfacet
  facet normal 1.000000 0.000000 0.000000
    outer loop
      vertex 10.000000 20.000000 5.000000
      vertex 10.000000 20.000000 45.000000
      vertex 10.000000 -20.000000 45.000000
    endloop
  endfacet
  facet normal 1.000000 0.000000 0.000000
    outer loop
      vertex 10.000000 -20.000000 5.000000
      vertex 10.000000 20.000000 5.000000
      vertex 10.000000 -20.000000 45.000000
    endloop
  endfacet
  facet normal 0.000000 1.000000 0.000000
    outer loop
      vertex 50.000000 -20.000000 45.000000
      vertex 50.000000 -20.000000 5.000000
      vertex 10.000000 -20.000000 45.000000
    endloop
  endfacet
  facet normal 0.000000 1.000000 -0.000000
    outer loop
      vertex 10.000000 -20.000000 45.000000
      vertex 50.000000 -20.000000 5.000000
      vertex 10.000000 -20.000000 5.000000
    endloop
  endfacet
  facet normal -1.000000 0.000000 0.000000
    outer loop
      vertex 50.000000 20.000000 45.000000
      vertex 50.000000 20.000000 5.000000
      vertex 50.000000 -20.000000 45.000000
    endloop
  endfacet
  facet normal -1.000000 0.000000 0.000000
    outer loop
      vertex 50.000000 -20.000000 45.000000
      vertex 50.000000 20.000000 5.000000
      vertex 50.000000 -20.000000 5.000000
    endloop
  endfacet
  facet normal 0.000000 -1.000000 0.000000
    outer loop
      vertex 50.000000 20.000000 5.000000
      vertex 50.000000 20.000000 45.000000
      vertex 10.000000 20.000000 45.000000
    endloop
  endfacet
  facet normal -0.000000 -1.000000 -0.000000
    outer loop
      vertex 10.000000 20.000000 5.000000
      vertex 50.000000 20.000000 5.000000
      vertex 10.000000 20.000000 45.000000
    endloop
  endfacet
  facet normal 0.000000 0.000000 1.000000
    outer loop
      vertex 50.000000 -20.000000 5.000000
      vertex 50.000000 20.000000 5.000000
      vertex 10.000000 20.000000 5.000000
    endloop
  endfacet
  facet normal 0.000000 0.000000 1.000000
    outer loop
      vertex 10.000000 -20.000000 5.000000
      vertex 50.000000 -20.000000 5.000000
      vertex 10.000000 20.000000 5.000000
    endloop
  endfacet
  facet normal -1.000000 -0.000000 -0.000000
    outer loop
      vertex -55.000000 -25.000000 0.000000
      vertex -55.000000 -25.000000 12.500000
      vertex -55.000000 25.000000 -0.000000
    endloop
  endfacet
  facet normal -1.000000 0.000000 -0.000000
    outer loop
      vertex -55.000000 25.000000 -0.000000
      vertex -55.000000 -25.000000 12.500000
      vertex -55.000000 25.000000 12.500000
    endloop
  endfacet
  facet normal 0.000000 -1.000000 0.000000
    outer loop
      vertex -55.000000 -25.000000 12.500000
      vertex -55.000000 -25.000000 0.000000
      vertex -5.000000 -25.000000 0.000000
    endloop
  endfacet
  facet normal 0.000000 -1.000000 0.000000
    outer loop
      vertex -5.000000 -25.000000 12.500000
      vertex -55.000000 -25.000000 12.500000
      vertex -5.000000 -25.000000 0.000000
    endloop
  endfacet
  facet normal -0.000000 -0.000000 -1.000000
    outer loop
      vertex -55.000000 -25.000000 0.000000
      vertex -55.000000 25.000000 -0.000000
      vertex -5.000000 -25.000000 0.000000
    endloop
  endfacet
  facet normal 0.000000 -0.000000 -1.000000
    outer loop
      vertex -5.000000 -25.000000 0.000000
      vertex -55.000000 25.000000 -0.000000
      vertex -5.000000 25.000000 -0.000000
    endloop
  endfacet
  facet normal 0.000000 1.000000 -0.000000
    outer loop
      vertex -55.000000 25.000000 -0.000000
      vertex -55.000000 25.000000 12.500000
      vertex -5.000000 25.000000 -0.000000
    endloop
  endfacet
  facet normal 0.000000 1.000000 -0.000000
    outer loop
      vertex -5.000000 25.000000 -0.000000
      vertex -55.000000 25.000000 12.500000
      vertex -5.000000 25.000000 12.500000
    endloop
  endfacet
  facet normal 0.000000 -0.000000 1.000000
    outer loop
      vertex -52.500000 -22.500000 12.500000
      vertex -55.000000 -25.000000 12.500000
      vertex -5.000000 -25.000000 12.500000
    endloop
  endfacet
  facet normal 0.000000 0.000000 1.000000
    outer loop
      vertex -52.500000 22.500000 12.500000
      vertex -55.000000 25.000000 12.500000
      vertex -52.500000 -22.500000 12.500000
    endloop
  endfacet
  facet normal 0.000000 -0.000000 1.000000
    outer loop
      vertex -7.500000 -22.500000 12.500000
      vertex -52.500000 -22.500000 12.500000
      vertex -5.000000 -25.000000 12.500000
    endloop
  endfacet
  facet normal -0.000000 0.000000 1.000000
    outer loop
      vertex -55.000000 25.000000 12.500000
      vertex -55.000000 -25.000000 12.500000
      vertex -52.500000 -22.500000 12.500000
    endloop
  endfacet
  facet normal 0.000000 0.000000 1.000000
    outer loop
      vertex -5.000000 25.000000 12.500000
      vertex -55.000000 25.000000 12.500000
      vertex -52.500000 22.500000 12.500000
    endloop
  endfacet
  facet normal -0.000000 0.000000 1.000000
    outer loop
      vertex -5.000000 25.000000 12.500000
      vertex -7.500000 22.500000 12.500000
      vertex -5.000000 -25.000000 12.500000
    endloop
  endfacet
  facet normal 0.000000 0.000000 1.000000
    outer loop
      vertex -5.000000 25.000000 12.500000
      vertex -52.500000 22.500000 12.500000
      vertex -7.500000 22.500000 12.500000
    endloop
  endfacet
  facet normal 0.000000 0.000000 1.000000
    outer loop
      vertex -7.500000 22.500000 12.500000
      vertex -7.500000 -22.500000 12.500000
      vertex -5.000000 -25.000000 12.500000
    endloop
  endfacet
  facet normal 1.000000 0.000000 -0.000000
    outer loop
      vertex -5.000000 -25.000000 12.500000
      vertex -5.000000 -25.000000 0.000000
      vertex -5.000000 25.000000 -0.000000
    endloop
  endfacet
  facet normal 1.000000 -0.000000 0.000000
    outer loop
      vertex -5.000000 25.000000 12.500000
      vertex -5.000000 -25.000000 12.500000
      vertex -5.000000 25.000000 -0.000000
    endloop
  endfacet
  facet normal 1.000000 0.000000 0.000000
    outer loop
      vertex -52.500000 22.500000 5.000000
      vertex -52.500000 22.500000 12.500000
      vertex -52.500000 -22.500000 12.500000
    endloop
  endfacet
  facet normal 1.000000 0.000000 0.000000
    outer loop
      vertex -52.500000 -22.500000 5.000000
      vertex -52.500000 22.500000 5.000000
      vertex -52.500000 -22.500000 12.500000
    endloop
  endfacet
  facet normal 0.000000 1.000000 0.000000
    outer loop
      vertex -7.500000 -22.500000 12.500000
      vertex -7.500000 -22.500000 5.000000
      vertex -52.500000 -22.500000 12.500000
    endloop
  endfacet
  facet normal 0.000000 1.000000 -0.000000
    outer loop
      vertex -52.500000 -22.500000 12.500000
      vertex -7.500000 -22.500000 5.000000
      vertex -52.500000 -22.500000 5.000000
    endloop
  endfacet
  facet normal -1.000000 0.000000 0.000000
    outer loop
      vertex -7.500000 22.500000 12.500000
      vertex -7.500000 22.500000 5.000000
      vertex -7.500000 -22.500000 12.500000
    endloop
  endfacet
  facet normal -1.000000 0.000000 0.000000
    outer loop
      vertex -7.500000 -22.500000 12.500000
      vertex -7.500000 22.500000 5.000000
      vertex -7.500000 -22.500000 5.000000
    endloop
  endfacet
  facet normal 0.000000 -1.000000 0.000000
    outer loop
      vertex -7.500000 22.500000 5.000000
      vertex -7.500000 22.500000 12.500000
      vertex -52.500000 22.500000 12.500000
    endloop
  endfacet
  facet normal 0.000000 -1.000000 0.000000
    outer loop
      vertex -52.500000 22.500000 5.000000
      vertex -7.500000 22.500000 5.000000
      vertex -52.500000 22.500000 12.500000
    endloop
  endfacet
  facet normal 0.000000 0.000000 1.000000
    outer loop
      vertex -7.500000 -22.500000 5.000000
      vertex -7.500000 22.500000 5.000000
      vertex -52.500000 22.500000 5.000000
    endloop
  endfacet
  facet normal 0.000000 0.000000 1.000000
    outer loop
      vertex -52.500000 -22.500000 5.000000
      vertex -7.500000 -22.500000 5.000000
      vertex -52.500000 22.500000 5.000000
    endloop
  endfacet
endsolid OpenSCAD_Model
