solid Default
  facet normal -1.000000e+00 -0.000000e+00 -0.000000e+00
    outer loop
      vertex 2.812500e+00 -1.406250e+01 0.000000e+00
      vertex 2.812500e+00 -1.406250e+01 2.109375e+01
      vertex 2.812500e+00 1.406250e+01 0.000000e+00
    endloop
  endfacet
  facet normal -1.000000e+00 0.000000e+00 0.000000e+00
    outer loop
      vertex 2.812500e+00 1.406250e+01 0.000000e+00
      vertex 2.812500e+00 -1.406250e+01 2.109375e+01
      vertex 2.812500e+00 1.406250e+01 2.109375e+01
    endloop
  endfacet
  facet normal 0.000000e+00 -1.000000e+00 0.000000e+00
    outer loop
      vertex 2.812500e+00 -1.406250e+01 2.109375e+01
      vertex 2.812500e+00 -1.406250e+01 0.000000e+00
      vertex 3.093750e+01 -1.406250e+01 0.000000e+00
    endloop
  endfacet
  facet normal 0.000000e+00 -1.000000e+00 0.000000e+00
    outer loop
      vertex 3.093750e+01 -1.406250e+01 2.109375e+01
      vertex 2.812500e+00 -1.406250e+01 2.109375e+01
      vertex 3.093750e+01 -1.406250e+01 0.000000e+00
    endloop
  endfacet
  facet normal -0.000000e+00 -0.000000e+00 -1.000000e+00
    outer loop
      vertex 2.812500e+00 -1.406250e+01 0.000000e+00
      vertex 2.812500e+00 1.406250e+01 0.000000e+00
      vertex 3.093750e+01 -1.406250e+01 0.000000e+00
    endloop
  endfacet
  facet normal 0.000000e+00 0.000000e+00 -1.000000e+00
    outer loop
      vertex 3.093750e+01 -1.406250e+01 0.000000e+00
      vertex 2.812500e+00 1.406250e+01 0.000000e+00
      vertex 3.093750e+01 1.406250e+01 0.000000e+00
    endloop
  endfacet
  facet normal 0.000000e+00 1.000000e+00 0.000000e+00
    outer loop
      vertex 2.812500e+00 1.406250e+01 0.000000e+00
      vertex 2.812500e+00 1.406250e+01 2.109375e+01
      vertex 3.093750e+01 1.406250e+01 0.000000e+00
    endloop
  endfacet
  facet normal 0.000000e+00 1.000000e+00 0.000000e+00
    outer loop
      vertex 3.093750e+01 1.406250e+01 0.000000e+00
      vertex 2.812500e+00 1.406250e+01 2.109375e+01
      vertex 3.093750e+01 1.406250e+01 2.109375e+01
    endloop
  endfacet
  facet normal 0.000000e+00 0.000000e+00 1.000000e+00
    outer loop
      vertex 4.218750e+00 1.265625e+01 2.109375e+01
      vertex 3.093750e+01 1.406250e+01 2.109375e+01
      vertex 2.812500e+00 1.406250e+01 2.109375e+01
    endloop
  endfacet
  facet normal 0.000000e+00 0.000000e+00 1.000000e+00
    outer loop
      vertex 2.953125e+01 1.265625e+01 2.109375e+01
      vertex 3.093750e+01 -1.406250e+01 2.109375e+01
      vertex 3.093750e+01 1.406250e+01 2.109375e+01
    endloop
  endfacet
  facet normal 0.000000e+00 0.000000e+00 1.000000e+00
    outer loop
      vertex 2.812500e+00 -1.406250e+01 2.109375e+01
      vertex 4.218750e+00 1.265625e+01 2.109375e+01
      vertex 2.812500e+00 1.406250e+01 2.109375e+01
    endloop
  endfacet
  facet normal 0.000000e+00 0.000000e+00 1.000000e+00
    outer loop
      vertex 2.953125e+01 -1.265625e+01 2.109375e+01
      vertex 3.093750e+01 -1.406250e+01 2.109375e+01
      vertex 2.953125e+01 1.265625e+01 2.109375e+01
    endloop
  endfacet
  facet normal 0.000000e+00 0.000000e+00 1.000000e+00
    outer loop
      vertex 4.218750e+00 1.265625e+01 2.109375e+01
      vertex 2.953125e+01 1.265625e+01 2.109375e+01
      vertex 3.093750e+01 1.406250e+01 2.109375e+01
    endloop
  endfacet
  facet normal 0.000000e+00 0.000000e+00 1.000000e+00
    outer loop
      vertex 2.812500e+00 -1.406250e+01 2.109375e+01
      vertex 3.093750e+01 -1.406250e+01 2.109375e+01
      vertex 2.953125e+01 -1.265625e+01 2.109375e+01
    endloop
  endfacet
  facet normal 0.000000e+00 0.000000e+00 1.000000e+00
    outer loop
      vertex 2.812500e+00 -1.406250e+01 2.109375e+01
      vertex 4.218750e+00 -1.265625e+01 2.109375e+01
      vertex 4.218750e+00 1.265625e+01 2.109375e+01
    endloop
  endfacet
  facet normal 0.000000e+00 0.000000e+00 1.000000e+00
    outer loop
      vertex 2.812500e+00 -1.406250e+01 2.109375e+01
      vertex 2.953125e+01 -1.265625e+01 2.109375e+01
      vertex 4.218750e+00 -1.265625e+01 2.109375e+01
    endloop
  endfacet
  facet normal 1.000000e+00 0.000000e+00 0.000000e+00
    outer loop
      vertex 3.093750e+01 -1.406250e+01 2.109375e+01
      vertex 3.093750e+01 -1.406250e+01 0.000000e+00
      vertex 3.093750e+01 1.406250e+01 0.000000e+00
    endloop
  endfacet
  facet normal 1.000000e+00 0.000000e+00 0.000000e+00
    outer loop
      vertex 3.093750e+01 1.406250e+01 2.109375e+01
      vertex 3.093750e+01 -1.406250e+01 2.109375e+01
      vertex 3.093750e+01 1.406250e+01 0.000000e+00
    endloop
  endfacet
  facet normal -1.000000e+00 -0.000000e+00 -0.000000e+00
    outer loop
      vertex 4.218750e+00 -1.265625e+01 2.109375e+01
      vertex 4.218750e+00 -1.265625e+01 2.531250e+01
      vertex 4.218750e+00 1.265625e+01 2.109375e+01
    endloop
  endfacet
  facet normal -1.000000e+00 0.000000e+00 0.000000e+00
    outer loop
      vertex 4.218750e+00 1.265625e+01 2.109375e+01
      vertex 4.218750e+00 -1.265625e+01 2.531250e+01
      vertex 4.218750e+00 1.265625e+01 2.531250e+01
    endloop
  endfacet
  facet normal 0.000000e+00 1.000000e+00 0.000000e+00
    outer loop
      vertex 4.218750e+00 1.265625e+01 2.109375e+01
      vertex 4.218750e+00 1.265625e+01 2.531250e+01
      vertex 2.953125e+01 1.265625e+01 2.109375e+01
    endloop
  endfacet
  facet normal 0.000000e+00 1.000000e+00 0.000000e+00
    outer loop
      vertex 2.953125e+01 1.265625e+01 2.109375e+01
      vertex 4.218750e+00 1.265625e+01 2.531250e+01
      vertex 2.953125e+01 1.265625e+01 2.531250e+01
    endloop
  endfacet
  facet normal 0.000000e+00 -1.000000e+00 0.000000e+00
    outer loop
      vertex 4.218750e+00 -1.265625e+01 2.531250e+01
      vertex 4.218750e+00 -1.265625e+01 2.109375e+01
      vertex 2.953125e+01 -1.265625e+01 2.109375e+01
    endloop
  endfacet
  facet normal 0.000000e+00 -1.000000e+00 0.000000e+00
    outer loop
      vertex 2.953125e+01 -1.265625e+01 2.531250e+01
      vertex 4.218750e+00 -1.265625e+01 2.531250e+01
      vertex 2.953125e+01 -1.265625e+01 2.109375e+01
    endloop
  endfacet
  facet normal 1.000000e+00 0.000000e+00 0.000000e+00
    outer loop
      vertex 2.953125e+01 -1.265625e+01 2.531250e+01
      vertex 2.953125e+01 -1.265625e+01 2.109375e+01
      vertex 2.953125e+01 1.265625e+01 2.109375e+01
    endloop
  endfacet
  facet normal 1.000000e+00 0.000000e+00 0.000000e+00
    outer loop
      vertex 2.953125e+01 1.265625e+01 2.531250e+01
      vertex 2.953125e+01 -1.265625e+01 2.531250e+01
      vertex 2.953125e+01 1.265625e+01 2.109375e+01
    endloop
  endfacet
  facet normal 0.000000e+00 0.000000e+00 1.000000e+00
    outer loop
      vertex 5.625000e+00 -1.125000e+01 2.531250e+01
      vertex 4.218750e+00 -1.265625e+01 2.531250e+01
      vertex 2.953125e+01 -1.265625e+01 2.531250e+01
    endloop
  endfacet
  facet normal 0.000000e+00 0.000000e+00 1.000000e+00
    outer loop
      vertex 5.625000e+00 1.125000e+01 2.531250e+01
      vertex 4.218750e+00 1.265625e+01 2.531250e+01
      vertex 5.625000e+00 -1.125000e+01 2.531250e+01
    endloop
  endfacet
  facet normal 0.000000e+00 0.000000e+00 1.000000e+00
    outer loop
      vertex 2.812500e+01 -1.125000e+01 2.531250e+01
      vertex 5.625000e+00 -1.125000e+01 2.531250e+01
      vertex 2.953125e+01 -1.265625e+01 2.531250e+01
    endloop
  endfacet
  facet normal 0.000000e+00 0.000000e+00 1.000000e+00
    outer loop
      vertex 4.218750e+00 1.265625e+01 2.531250e+01
      vertex 4.218750e+00 -1.265625e+01 2.531250e+01
      vertex 5.625000e+00 -1.125000e+01 2.531250e+01
    endloop
  endfacet
  facet normal 0.000000e+00 0.000000e+00 1.000000e+00
    outer loop
      vertex 2.953125e+01 1.265625e+01 2.531250e+01
      vertex 4.218750e+00 1.265625e+01 2.531250e+01
      vertex 5.625000e+00 1.125000e+01 2.531250e+01
    endloop
  endfacet
  facet normal 0.000000e+00 0.000000e+00 1.000000e+00
    outer loop
      vertex 2.953125e+01 1.265625e+01 2.531250e+01
      vertex 2.812500e+01 1.125000e+01 2.531250e+01
      vertex 2.953125e+01 -1.265625e+01 2.531250e+01
    endloop
  endfacet
  facet normal 0.000000e+00 0.000000e+00 1.000000e+00
    outer loop
      vertex 2.953125e+01 1.265625e+01 2.531250e+01
      vertex 5.625000e+00 1.125000e+01 2.531250e+01
      vertex 2.812500e+01 1.125000e+01 2.531250e+01
    endloop
  endfacet
  facet normal 0.000000e+00 0.000000e+00 1.000000e+00
    outer loop
      vertex 2.812500e+01 1.125000e+01 2.531250e+01
      vertex 2.812500e+01 -1.125000e+01 2.531250e+01
      vertex 2.953125e+01 -1.265625e+01 2.531250e+01
    endloop
  endfacet
  facet normal 1.000000e+00 0.000000e+00 0.000000e+00
    outer loop
      vertex 5.625000e+00 1.125000e+01 2.812500e+00
      vertex 5.625000e+00 1.125000e+01 2.531250e+01
      vertex 5.625000e+00 -1.125000e+01 2.531250e+01
    endloop
  endfacet
  facet normal 1.000000e+00 0.000000e+00 0.000000e+00
    outer loop
      vertex 5.625000e+00 -1.125000e+01 2.812500e+00
      vertex 5.625000e+00 1.125000e+01 2.812500e+00
      vertex 5.625000e+00 -1.125000e+01 2.531250e+01
    endloop
  endfacet
  facet normal 0.000000e+00 1.000000e+00 0.000000e+00
    outer loop
      vertex 2.812500e+01 -1.125000e+01 2.531250e+01
      vertex 2.812500e+01 -1.125000e+01 2.812500e+00
      vertex 5.625000e+00 -1.125000e+01 2.531250e+01
    endloop
  endfacet
  facet normal 0.000000e+00 1.000000e+00 0.000000e+00
    outer loop
      vertex 5.625000e+00 -1.125000e+01 2.531250e+01
      vertex 2.812500e+01 -1.125000e+01 2.812500e+00
      vertex 5.625000e+00 -1.125000e+01 2.812500e+00
    endloop
  endfacet
  facet normal -1.000000e+00 0.000000e+00 0.000000e+00
    outer loop
      vertex 2.812500e+01 1.125000e+01 2.531250e+01
      vertex 2.812500e+01 1.125000e+01 2.812500e+00
      vertex 2.812500e+01 -1.125000e+01 2.531250e+01
    endloop
  endfacet
  facet normal -1.000000e+00 0.000000e+00 0.000000e+00
    outer loop
      vertex 2.812500e+01 -1.125000e+01 2.531250e+01
      vertex 2.812500e+01 1.125000e+01 2.812500e+00
      vertex 2.812500e+01 -1.125000e+01 2.812500e+00
    endloop
  endfacet
  facet normal 0.000000e+00 -1.000000e+00 0.000000e+00
    outer loop
      vertex 2.812500e+01 1.125000e+01 2.812500e+00
      vertex 2.812500e+01 1.125000e+01 2.531250e+01
      vertex 5.625000e+00 1.125000e+01 2.531250e+01
    endloop
  endfacet
  facet normal -0.000000e+00 -1.000000e+00 -0.000000e+00
    outer loop
      vertex 5.625000e+00 1.125000e+01 2.812500e+00
      vertex 2.812500e+01 1.125000e+01 2.812500e+00
      vertex 5.625000e+00 1.125000e+01 2.531250e+01
    endloop
  endfacet
  facet normal 0.000000e+00 0.000000e+00 1.000000e+00
    outer loop
      vertex 2.812500e+01 -1.125000e+01 2.812500e+00
      vertex 2.812500e+01 1.125000e+01 2.812500e+00
      vertex 5.625000e+00 1.125000e+01 2.812500e+00
    endloop
  endfacet
  facet normal 0.000000e+00 0.000000e+00 1.000000e+00
    outer loop
      vertex 5.625000e+00 -1.125000e+01 2.812500e+00
      vertex 2.812500e+01 -1.125000e+01 2.812500e+00
      vertex 5.625000e+00 1.125000e+01 2.812500e+00
    endloop
  endfacet
  facet normal -1.000000e+00 -0.000000e+00 -0.000000e+00
    outer loop
      vertex -3.093750e+01 -1.406250e+01 0.000000e+00
      vertex -3.093750e+01 -1.406250e+01 7.031250e+00
      vertex -3.093750e+01 1.406250e+01 0.000000e+00
    endloop
  endfacet
  facet normal -1.000000e+00 0.000000e+00 0.000000e+00
    outer loop
      vertex -3.093750e+01 1.406250e+01 0.000000e+00
      vertex -3.093750e+01 -1.406250e+01 7.031250e+00
      vertex -3.093750e+01 1.406250e+01 7.031250e+00
    endloop
  endfacet
  facet normal 0.000000e+00 -1.000000e+00 0.000000e+00
    outer loop
      vertex -3.093750e+01 -1.406250e+01 7.031250e+00
      vertex -3.093750e+01 -1.406250e+01 0.000000e+00
      vertex -2.812500e+00 -1.406250e+01 0.000000e+00
    endloop
  endfacet
  facet normal 0.000000e+00 -1.000000e+00 0.000000e+00
    outer loop
      vertex -2.812500e+00 -1.406250e+01 7.031250e+00
      vertex -3.093750e+01 -1.406250e+01 7.031250e+00
      vertex -2.812500e+00 -1.406250e+01 0.000000e+00
    endloop
  endfacet
  facet normal -0.000000e+00 -0.000000e+00 -1.000000e+00
    outer loop
      vertex -3.093750e+01 -1.406250e+01 0.000000e+00
      vertex -3.093750e+01 1.406250e+01 0.000000e+00
      vertex -2.812500e+00 -1.406250e+01 0.000000e+00
    endloop
  endfacet
  facet normal 0.000000e+00 0.000000e+00 -1.000000e+00
    outer loop
      vertex -2.812500e+00 -1.406250e+01 0.000000e+00
      vertex -3.093750e+01 1.406250e+01 0.000000e+00
      vertex -2.812500e+00 1.406250e+01 0.000000e+00
    endloop
  endfacet
  facet normal 0.000000e+00 1.000000e+00 0.000000e+00
    outer loop
      vertex -3.093750e+01 1.406250e+01 0.000000e+00
      vertex -3.093750e+01 1.406250e+01 7.031250e+00
      vertex -2.812500e+00 1.406250e+01 0.000000e+00
    endloop
  endfacet
  facet normal 0.000000e+00 1.000000e+00 0.000000e+00
    outer loop
      vertex -2.812500e+00 1.406250e+01 0.000000e+00
      vertex -3.093750e+01 1.406250e+01 7.031250e+00
      vertex -2.812500e+00 1.406250e+01 7.031250e+00
    endloop
  endfacet
  facet normal 0.000000e+00 0.000000e+00 1.000000e+00
    outer loop
      vertex -2.953125e+01 -1.265625e+01 7.031250e+00
      vertex -3.093750e+01 -1.406250e+01 7.031250e+00
      vertex -2.812500e+00 -1.406250e+01 7.031250e+00
    endloop
  endfacet
  facet normal 0.000000e+00 0.000000e+00 1.000000e+00
    outer loop
      vertex -2.953125e+01 1.265625e+01 7.031250e+00
      vertex -3.093750e+01 1.406250e+01 7.031250e+00
      vertex -2.953125e+01 -1.265625e+01 7.031250e+00
    endloop
  endfacet
  facet normal 0.000000e+00 0.000000e+00 1.000000e+00
    outer loop
      vertex -4.218750e+00 -1.265625e+01 7.031250e+00
      vertex -2.953125e+01 -1.265625e+01 7.031250e+00
      vertex -2.812500e+00 -1.406250e+01 7.031250e+00
    endloop
  endfacet
  facet normal 0.000000e+00 0.000000e+00 1.000000e+00
    outer loop
      vertex -3.093750e+01 1.406250e+01 7.031250e+00
      vertex -3.093750e+01 -1.406250e+01 7.031250e+00
      vertex -2.953125e+01 -1.265625e+01 7.031250e+00
    endloop
  endfacet
  facet normal 0.000000e+00 0.000000e+00 1.000000e+00
    outer loop
      vertex -2.812500e+00 1.406250e+01 7.031250e+00
      vertex -3.093750e+01 1.406250e+01 7.031250e+00
      vertex -2.953125e+01 1.265625e+01 7.031250e+00
    endloop
  endfacet
  facet normal 0.000000e+00 0.000000e+00 1.000000e+00
    outer loop
      vertex -2.812500e+00 1.406250e+01 7.031250e+00
      vertex -4.218750e+00 1.265625e+01 7.031250e+00
      vertex -2.812500e+00 -1.406250e+01 7.031250e+00
    endloop
  endfacet
  facet normal 0.000000e+00 0.000000e+00 1.000000e+00
    outer loop
      vertex -2.812500e+00 1.406250e+01 7.031250e+00
      vertex -2.953125e+01 1.265625e+01 7.031250e+00
      vertex -4.218750e+00 1.265625e+01 7.031250e+00
    endloop
  endfacet
  facet normal 0.000000e+00 0.000000e+00 1.000000e+00
    outer loop
      vertex -4.218750e+00 1.265625e+01 7.031250e+00
      vertex -4.218750e+00 -1.265625e+01 7.031250e+00
      vertex -2.812500e+00 -1.406250e+01 7.031250e+00
    endloop
  endfacet
  facet normal 1.000000e+00 0.000000e+00 0.000000e+00
    outer loop
      vertex -2.812500e+00 -1.406250e+01 7.031250e+00
      vertex -2.812500e+00 -1.406250e+01 0.000000e+00
      vertex -2.812500e+00 1.406250e+01 0.000000e+00
    endloop
  endfacet
  facet normal 1.000000e+00 0.000000e+00 0.000000e+00
    outer loop
      vertex -2.812500e+00 1.406250e+01 7.031250e+00
      vertex -2.812500e+00 -1.406250e+01 7.031250e+00
      vertex -2.812500e+00 1.406250e+01 0.000000e+00
    endloop
  endfacet
  facet normal 1.000000e+00 0.000000e+00 0.000000e+00
    outer loop
      vertex -2.953125e+01 1.265625e+01 2.812500e+00
      vertex -2.953125e+01 1.265625e+01 7.031250e+00
      vertex -2.953125e+01 -1.265625e+01 7.031250e+00
    endloop
  endfacet
  facet normal 1.000000e+00 0.000000e+00 0.000000e+00
    outer loop
      vertex -2.953125e+01 -1.265625e+01 2.812500e+00
      vertex -2.953125e+01 1.265625e+01 2.812500e+00
      vertex -2.953125e+01 -1.265625e+01 7.031250e+00
    endloop
  endfacet
  facet normal 0.000000e+00 1.000000e+00 0.000000e+00
    outer loop
      vertex -4.218750e+00 -1.265625e+01 7.031250e+00
      vertex -4.218750e+00 -1.265625e+01 2.812500e+00
      vertex -2.953125e+01 -1.265625e+01 7.031250e+00
    endloop
  endfacet
  facet normal 0.000000e+00 1.000000e+00 0.000000e+00
    outer loop
      vertex -2.953125e+01 -1.265625e+01 7.031250e+00
      vertex -4.218750e+00 -1.265625e+01 2.812500e+00
      vertex -2.953125e+01 -1.265625e+01 2.812500e+00
    endloop
  endfacet
  facet normal -1.000000e+00 0.000000e+00 0.000000e+00
    outer loop
      vertex -4.218750e+00 1.265625e+01 7.031250e+00
      vertex -4.218750e+00 1.265625e+01 2.812500e+00
      vertex -4.218750e+00 -1.265625e+01 7.031250e+00
    endloop
  endfacet
  facet normal -1.000000e+00 0.000000e+00 0.000000e+00
    outer loop
      vertex -4.218750e+00 -1.265625e+01 7.031250e+00
      vertex -4.218750e+00 1.265625e+01 2.812500e+00
      vertex -4.218750e+00 -1.265625e+01 2.812500e+00
    endloop
  endfacet
  facet normal 0.000000e+00 -1.000000e+00 0.000000e+00
    outer loop
      vertex -4.218750e+00 1.265625e+01 2.812500e+00
      vertex -4.218750e+00 1.265625e+01 7.031250e+00
      vertex -2.953125e+01 1.265625e+01 7.031250e+00
    endloop
  endfacet
  facet normal 0.000000e+00 -1.000000e+00 0.000000e+00
    outer loop
      vertex -2.953125e+01 1.265625e+01 2.812500e+00
      vertex -4.218750e+00 1.265625e+01 2.812500e+00
      vertex -2.953125e+01 1.265625e+01 7.031250e+00
    endloop
  endfacet
  facet normal 0.000000e+00 0.000000e+00 1.000000e+00
    outer loop
      vertex -4.218750e+00 -1.265625e+01 2.812500e+00
      vertex -4.218750e+00 1.265625e+01 2.812500e+00
      vertex -2.953125e+01 1.265625e+01 2.812500e+00
    endloop
  endfacet
  facet normal 0.000000e+00 0.000000e+00 1.000000e+00
    outer loop
      vertex -2.953125e+01 -1.265625e+01 2.812500e+00
      vertex -4.218750e+00 -1.265625e+01 2.812500e+00
      vertex -2.953125e+01 1.265625e+01 2.812500e+00
    endloop
  endfacet
endsolid Default
