solid OpenSCAD_Model
  facet normal -1.000000 0.000000 0.000000
    outer loop
      vertex -47.500000 47.500000 23.750000
      vertex -47.500000 47.500000 -0.000000
      vertex -47.500000 -47.500000 23.750000
    endloop
  endfacet
  facet normal -1.000000 0.000000 0.000000
    outer loop
      vertex -47.500000 -47.500000 23.750000
      vertex -47.500000 47.500000 -0.000000
      vertex -47.500000 -47.500000 0.000000
    endloop
  endfacet
  facet normal 0.000000 1.000000 -0.000000
    outer loop
      vertex -47.500000 47.500000 23.750000
      vertex 47.500000 47.500000 23.750000
      vertex -47.500000 47.500000 -0.000000
    endloop
  endfacet
  facet normal 0.000000 1.000000 -0.000000
    outer loop
      vertex -47.500000 47.500000 -0.000000
      vertex 47.500000 47.500000 23.750000
      vertex 47.500000 47.500000 -0.000000
    endloop
  endfacet
  facet normal -0.000000 0.000000 1.000000
    outer loop
      vertex -42.750000 -42.750000 23.750000
      vertex -47.500000 47.500000 23.750000
      vertex -47.500000 -47.500000 23.750000
    endloop
  endfacet
  facet normal 0.000000 0.000000 1.000000
    outer loop
      vertex -42.750000 42.750000 23.750000
      vertex 47.500000 47.500000 23.750000
      vertex -47.500000 47.500000 23.750000
    endloop
  endfacet
  facet normal -0.000000 0.000000 1.000000
    outer loop
      vertex 47.500000 -47.500000 23.750000
      vertex -42.750000 -42.750000 23.750000
      vertex -47.500000 -47.500000 23.750000
    endloop
  endfacet
  facet normal -0.000000 0.000000 1.000000
    outer loop
      vertex 42.750000 42.750000 23.750000
      vertex 47.500000 47.500000 23.750000
      vertex -42.750000 42.750000 23.750000
    endloop
  endfacet
  facet normal 0.000000 0.000000 1.000000
    outer loop
      vertex -42.750000 -42.750000 23.750000
      vertex -42.750000 42.750000 23.750000
      vertex -47.500000 47.500000 23.750000
    endloop
  endfacet
  facet normal -0.000000 0.000000 1.000000
    outer loop
      vertex 47.500000 -47.500000 23.750000
      vertex 47.500000 47.500000 23.750000
      vertex 42.750000 42.750000 23.750000
    endloop
  endfacet
  facet normal 0.000000 0.000000 1.000000
    outer loop
      vertex 47.500000 -47.500000 23.750000
      vertex 42.750000 -42.750000 23.750000
      vertex -42.750000 -42.750000 23.750000
    endloop
  endfacet
  facet normal 0.000000 0.000000 1.000000
    outer loop
      vertex 47.500000 -47.500000 23.750000
      vertex 42.750000 42.750000 23.750000
      vertex 42.750000 -42.750000 23.750000
    endloop
  endfacet
  facet normal 0.000000 -1.000000 0.000000
    outer loop
      vertex 47.500000 -47.500000 23.750000
      vertex -47.500000 -47.500000 23.750000
      vertex -47.500000 -47.500000 0.000000
    endloop
  endfacet
  facet normal 0.000000 -1.000000 0.000000
    outer loop
      vertex 47.500000 -47.500000 0.000000
      vertex 47.500000 -47.500000 23.750000
      vertex -47.500000 -47.500000 0.000000
    endloop
  endfacet
  facet normal -0.000000 -0.000000 -1.000000
    outer loop
      vertex -47.500000 47.500000 -0.000000
      vertex 47.500000 47.500000 -0.000000
      vertex -47.500000 -47.500000 0.000000
    endloop
  endfacet
  facet normal -0.000000 -0.000000 -1.000000
    outer loop
      vertex -47.500000 -47.500000 0.000000
      vertex 47.500000 47.500000 -0.000000
      vertex 47.500000 -47.500000 0.000000
    endloop
  endfacet
  facet normal 1.000000 0.000000 0.000000
    outer loop
      vertex 47.500000 47.500000 -0.000000
      vertex 47.500000 47.500000 23.750000
      vertex 47.500000 -47.500000 23.750000
    endloop
  endfacet
  facet normal 1.000000 0.000000 0.000000
    outer loop
      vertex 47.500000 -47.500000 0.000000
      vertex 47.500000 47.500000 -0.000000
      vertex 47.500000 -47.500000 23.750000
    endloop
  endfacet
  facet normal 1.000000 0.000000 -0.000000
    outer loop
      vertex -42.750000 -42.750000 23.750000
      vertex -42.750000 -42.750000 9.500000
      vertex -42.750000 42.750000 9.500000
    endloop
  endfacet
  facet normal 1.000000 -0.000000 0.000000
    outer loop
      vertex -42.750000 42.750000 23.750000
      vertex -42.750000 -42.750000 23.750000
      vertex -42.750000 42.750000 9.500000
    endloop
  endfacet
  facet normal -0.000000 1.000000 0.000000
    outer loop
      vertex 42.750000 -42.750000 9.500000
      vertex -42.750000 -42.750000 9.500000
      vertex 42.750000 -42.750000 23.750000
    endloop
  endfacet
  facet normal 0.000000 1.000000 0.000000
    outer loop
      vertex 42.750000 -42.750000 23.750000
      vertex -42.750000 -42.750000 9.500000
      vertex -42.750000 -42.750000 23.750000
    endloop
  endfacet
  facet normal -1.000000 -0.000000 -0.000000
    outer loop
      vertex 42.750000 -42.750000 9.500000
      vertex 42.750000 -42.750000 23.750000
      vertex 42.750000 42.750000 9.500000
    endloop
  endfacet
  facet normal -1.000000 0.000000 -0.000000
    outer loop
      vertex 42.750000 42.750000 9.500000
      vertex 42.750000 -42.750000 23.750000
      vertex 42.750000 42.750000 23.750000
    endloop
  endfacet
  facet normal 0.000000 -1.000000 0.000000
    outer loop
      vertex -42.750000 42.750000 9.500000
      vertex 42.750000 42.750000 9.500000
      vertex 42.750000 42.750000 23.750000
    endloop
  endfacet
  facet normal 0.000000 -1.000000 0.000000
    outer loop
      vertex -42.750000 42.750000 23.750000
      vertex -42.750000 42.750000 9.500000
      vertex 42.750000 42.750000 23.750000
    endloop
  endfacet
  facet normal 0.000000 0.000000 1.000000
    outer loop
      vertex -42.750000 -42.750000 9.500000
      vertex 42.750000 -42.750000 9.500000
      vertex 42.750000 42.750000 9.500000
    endloop
  endfacet
  facet normal 0.000000 0.000000 1.000000
    outer loop
      vertex -42.750000 42.750000 9.500000
      vertex -42.750000 -42.750000 9.500000
      vertex 42.750000 42.750000 9.500000
    endloop
  endfacet
endsolid OpenSCAD_Model
